<?xml version="1.0" encoding="UTF-8" standalone="no"?>
<svg width="78px" height="60px" viewBox="0 0 78 60" version="1.1" xmlns="http://www.w3.org/2000/svg" xmlns:xlink="http://www.w3.org/1999/xlink" xmlns:sketch="http://www.bohemiancoding.com/sketch/ns">
    <!-- Generator: Sketch 3.5.2 (25235) - http://www.bohemiancoding.com/sketch -->
    <title>articles</title>
    <desc>Created with Sketch.</desc>
    <defs></defs>
    <g id="Page-1" stroke="none" stroke-width="1" fill="none" fill-rule="evenodd" sketch:type="MSPage">
        <g id="articles" sketch:type="MSLayerGroup" fill="#CCCCCC">
            <path d="M75.1,59.833 L15.516,59.833 C14.274,59.833 13.266,58.825 13.266,57.583 L13.266,10.734 C13.266,9.492 14.274,8.484 15.516,8.484 L75.1,8.484 C76.342,8.484 77.35,9.492 77.35,10.734 L77.35,57.583 C77.35,58.825 76.342,59.833 75.1,59.833 L75.1,59.833 Z M17.766,55.333 L72.85,55.333 L72.85,12.984 L17.766,12.984 L17.766,55.333 L17.766,55.333 Z" id="Shape" sketch:type="MSShapeGroup"></path>
            <path d="M67.342,12.984 C66.416,12.984 65.549,12.407 65.221,11.484 L62.994,5.197 L37.486,12.886 C36.301,13.255 35.042,12.574 34.683,11.383 C34.325,10.195 34.997,8.937 36.189,8.579 L63.75,0.267 C64.891,-0.092 66.117,0.538 66.521,1.67 L69.461,9.982 C69.877,11.155 69.263,12.437 68.09,12.853 C67.846,12.943 67.591,12.984 67.342,12.984 L67.342,12.984 Z" id="Shape" sketch:type="MSShapeGroup"></path>
            <path d="M15.516,59.833 C14.595,59.833 13.73,59.266 13.399,58.348 L0.784,23.396 C0.579,22.825 0.611,22.195 0.876,21.65 C1.14,21.105 1.613,20.689 2.187,20.499 L14.802,16.286 C15.986,15.896 17.256,16.525 17.65,17.707 C18.044,18.885 17.407,20.159 16.229,20.552 L5.799,24.035 L17.632,56.818 C18.054,57.988 17.447,59.277 16.278,59.699 C16.027,59.789 15.769,59.833 15.516,59.833 L15.516,59.833 Z" id="Shape" sketch:type="MSShapeGroup"></path>
            <path d="M66.094,40.736 L49.746,40.736 C48.504,40.736 47.496,39.728 47.496,38.486 L47.496,20.469 C47.496,19.227 48.504,18.219 49.746,18.219 L66.094,18.219 C67.336,18.219 68.344,19.227 68.344,20.469 L68.344,38.487 C68.344,39.729 67.336,40.736 66.094,40.736 L66.094,40.736 Z M51.996,36.236 L63.844,36.236 L63.844,22.719 L51.996,22.719 L51.996,36.236 L51.996,36.236 Z" id="Shape" sketch:type="MSShapeGroup"></path>
            <path d="M40.623,22.719 L25.242,22.719 C24,22.719 22.992,21.711 22.992,20.469 C22.992,19.227 24,18.219 25.242,18.219 L40.623,18.219 C41.865,18.219 42.873,19.227 42.873,20.469 C42.873,21.711 41.865,22.719 40.623,22.719 L40.623,22.719 Z" id="Shape" sketch:type="MSShapeGroup"></path>
            <path d="M40.623,31.695 L25.242,31.695 C24,31.695 22.992,30.687 22.992,29.445 C22.992,28.204 24,27.195 25.242,27.195 L40.623,27.195 C41.865,27.195 42.873,28.204 42.873,29.445 C42.873,30.688 41.865,31.695 40.623,31.695 L40.623,31.695 Z" id="Shape" sketch:type="MSShapeGroup"></path>
            <path d="M40.623,40.68 L25.242,40.68 C24,40.68 22.992,39.671 22.992,38.43 C22.992,37.188 24,36.18 25.242,36.18 L40.623,36.18 C41.865,36.18 42.873,37.188 42.873,38.43 C42.873,39.671 41.865,40.68 40.623,40.68 L40.623,40.68 Z" id="Shape" sketch:type="MSShapeGroup"></path>
            <path d="M66.094,49.661 L25.242,49.661 C24,49.661 22.992,48.652 22.992,47.411 C22.992,46.169 24,45.161 25.242,45.161 L66.094,45.161 C67.336,45.161 68.344,46.169 68.344,47.411 C68.344,48.652 67.336,49.661 66.094,49.661 L66.094,49.661 Z" id="Shape" sketch:type="MSShapeGroup"></path>
        </g>
    </g>
</svg>