<?xml version="1.0" encoding="UTF-8" standalone="no"?>
<svg width="65px" height="52px" viewBox="0 0 65 52" version="1.1" xmlns="http://www.w3.org/2000/svg" xmlns:xlink="http://www.w3.org/1999/xlink" xmlns:sketch="http://www.bohemiancoding.com/sketch/ns">
    <!-- Generator: Sketch 3.5.2 (25235) - http://www.bohemiancoding.com/sketch -->
    <title>movies</title>
    <desc>Created with Sketch.</desc>
    <defs></defs>
    <g id="Page-1" stroke="none" stroke-width="1" fill="none" fill-rule="evenodd" sketch:type="MSPage">
        <path d="M38.7006373,34.1985657 C34.9672819,34.1985657 31.9296362,37.2362115 31.9296362,40.9702826 C31.9296362,44.7036379 34.9672819,47.7412837 38.7006373,47.7412837 C40.5093392,47.7412837 42.2099627,47.036985 43.4890091,45.7579386 C44.7680555,44.4788922 45.4723541,42.7782687 45.4723541,40.9702826 C45.4723541,37.2354957 42.4347084,34.1985657 38.7006373,34.1985657 L38.7006373,34.1985657 Z M41.9186522,44.1875817 C41.0590357,45.0471982 39.9159819,45.5203094 38.7006373,45.5203094 C36.964942,45.5203094 35.4547081,44.5440255 34.6874234,43.1110928 C35.9786376,43.4081293 37.3206701,43.5698889 38.7006373,43.5698889 C40.0834675,43.5698889 41.4276472,43.4074135 42.7188614,43.110377 C42.510578,43.5018926 42.2421715,43.8647782 41.9186522,44.1875817 L41.9186522,44.1875817 Z M58.4510605,31.5903704 C57.9829596,29.8439388 56.8620941,28.3838075 55.2967475,27.4798145 C54.267498,26.8857414 53.0986772,26.5715269 51.9155414,26.5715269 C49.5013145,26.5715269 47.252426,27.8684671 46.0471019,29.9577432 C45.1423931,31.5238056 44.9019009,33.3489697 45.3707175,35.0961171 C45.8388185,36.8432644 46.959684,38.3033957 48.5257464,39.2073887 C49.5549958,39.8014618 50.7238166,40.1163921 51.9062367,40.1163921 C54.3204636,40.1163921 56.5700679,38.8187361 57.7746762,36.72946 C58.679385,35.1626819 58.9191615,33.3375177 58.4510605,31.5903704 L58.4510605,31.5903704 Z M55.8514542,35.6193308 C55.0412245,37.0236335 53.5295591,37.8961336 51.9055209,37.8961336 C51.8568499,37.8961336 51.8074631,37.8882603 51.758792,37.8861131 C53.5839562,35.9292508 54.9746597,33.5629792 55.7763004,30.9383216 C56.0096351,31.3133749 56.1885728,31.726363 56.3066716,32.1651182 C56.6216019,33.339665 56.4598423,34.5657458 55.8514542,35.6193308 L55.8514542,35.6193308 Z M31.3556042,29.9577432 C30.1495644,27.8684671 27.8999601,26.5708111 25.4864489,26.5708111 C24.3040289,26.5708111 23.135208,26.8843099 22.1059586,27.4790987 C20.5398962,28.3838075 19.4197465,29.8439388 18.9509298,31.5903704 C18.4828289,33.3375177 18.7233211,35.1626819 19.6273141,36.72946 C20.833354,38.8180204 23.0822425,40.1156763 25.4964694,40.1156763 C26.6788895,40.1156763 27.848426,39.8014618 28.8769597,39.206673 C30.4430221,38.3026799 31.5638876,36.8425486 32.0319885,35.0954013 C32.5000895,33.3496855 32.2595973,31.5245213 31.3556042,29.9577432 L31.3556042,29.9577432 Z M25.4964694,37.8947021 C23.8724312,37.8947021 22.3607659,37.022202 21.5498204,35.618615 C20.9414323,34.5650301 20.7803884,33.3389492 21.0953187,32.1644024 C21.2127018,31.7256473 21.3923552,31.3133749 21.6249742,30.9376058 C22.4266149,33.5622634 23.8173184,35.9285351 25.6424826,37.8846816 C25.5938115,37.8875446 25.5451405,37.8947021 25.4964694,37.8947021 L25.4964694,37.8947021 Z M57.7753919,14.705097 C56.5693521,12.6158208 54.3211793,11.3181649 51.9069524,11.3181649 C50.7245324,11.3181649 49.5549958,11.6323795 48.5257464,12.2271682 C46.959684,13.1318771 45.8388185,14.5920084 45.3707175,16.3384399 C44.9026166,18.0848715 45.1431088,19.9100356 46.0471019,21.4768138 C47.2538575,23.5653742 49.5020303,24.8630301 51.9162572,24.8630301 C53.0986772,24.8630301 54.2682138,24.5488156 55.2974632,23.9540268 C56.8635256,23.0500337 57.9836754,21.5891867 58.4517763,19.8427551 C58.9198772,18.0963235 58.679385,16.2704436 57.7753919,14.705097 L57.7753919,14.705097 Z M56.3073874,19.2680073 C56.1900043,19.7074782 56.0103509,20.1197506 55.7770161,20.4962354 C54.9760912,17.8708621 53.5853877,15.5053062 51.7602235,13.5477282 C51.8096103,13.5462967 51.8575656,13.5377077 51.9069524,13.5377077 C53.5302749,13.5377077 55.0419402,14.4102077 55.8528857,15.8152262 C56.460558,16.8673797 56.6216019,18.0941763 56.3073874,19.2680073 L56.3073874,19.2680073 Z M32.0319885,16.3370084 C31.5638876,14.5905769 30.4437379,13.1304456 28.8769597,12.2257367 C27.8477103,11.6316637 26.6788895,11.3174492 25.4964694,11.3174492 C23.0822425,11.3174492 20.8326382,12.6143893 19.6273141,14.7036655 C18.7226053,16.2697279 18.4828289,18.0941763 18.9509298,19.8420393 C19.4190307,21.5884709 20.5398962,23.049318 22.1059586,23.953311 C23.135208,24.5473841 24.3040289,24.8623144 25.4864489,24.8623144 C27.9013916,24.8623144 30.1502801,23.5646584 31.3556042,21.4753823 C32.2595973,19.9086041 32.5000895,18.0841558 32.0319885,16.3370084 L32.0319885,16.3370084 Z M21.6249742,20.4948039 C21.3916395,20.1190348 21.2127018,19.7067625 21.0953187,19.2680073 C20.7811042,18.0934605 20.9421481,16.8673797 21.5498204,15.8145105 C22.3600501,14.4102077 23.8724312,13.5377077 25.4964694,13.5377077 C25.5451405,13.5377077 25.5938115,13.5455809 25.6424826,13.5477282 C23.8180342,15.5045904 22.4266149,17.8701463 21.6249742,20.4948039 L21.6249742,20.4948039 Z M38.701353,3.69184182 C34.9672819,3.69184182 31.930352,6.72948755 31.930352,10.4635587 C31.930352,14.196914 34.9679977,17.2345597 38.701353,17.2345597 C42.4347084,17.2345597 45.4723541,14.196914 45.4723541,10.4635587 C45.4723541,6.72948755 42.4354242,3.69184182 38.701353,3.69184182 L38.701353,3.69184182 Z M38.7006373,7.86252082 C37.3199543,7.86252082 35.9779218,8.02428046 34.6881392,8.32131698 C35.4554239,6.88909994 36.9663735,5.91210032 38.701353,5.91210032 C40.4363326,5.91210032 41.9472822,6.88909994 42.7145669,8.32131698 C41.4240685,8.02428046 40.082036,7.86252082 38.7006373,7.86252082 L38.7006373,7.86252082 Z M38.7006373,22.3858171 C36.8647369,22.3858171 35.3709653,23.8795887 35.3709653,25.7162049 C35.3709653,27.5521053 36.8647369,29.0458769 38.7006373,29.0458769 C40.5365377,29.0458769 42.031025,27.5521053 42.031025,25.7162049 C42.0317408,23.8795887 40.5372534,22.3858171 38.7006373,22.3858171 L38.7006373,22.3858171 Z M38.7006373,26.8263341 C38.0893862,26.8263341 37.590508,26.3281717 37.590508,25.7162049 C37.590508,25.1042381 38.0886705,24.6060756 38.7006373,24.6060756 C39.3126041,24.6060756 39.8107665,25.1035223 39.8107665,25.7162049 C39.8107665,26.3281717 39.3133198,26.8263341 38.7006373,26.8263341 L38.7006373,26.8263341 Z M38.7006373,2.21954275 C25.7448349,2.21954275 15.2046909,12.7604025 15.2046909,25.7169206 C15.2046909,38.672723 25.7448349,49.212867 38.7006373,49.212867 C51.6571554,49.212867 62.1972994,38.6720073 62.1972994,25.7169206 C62.1972994,12.7604025 51.6571554,2.21954275 38.7006373,2.21954275 L38.7006373,2.21954275 Z M64.4175579,25.7169206 C64.4175579,39.8959409 52.881089,51.4324097 38.7006373,51.4324097 C30.1431226,51.4324097 22.552587,47.226659 17.8758723,40.7777457 C15.2068382,48.900084 6.49257409,52 1.11012925,52 C0.496730947,52 0,51.5032691 0,50.8898708 C0,50.2771882 0.496730947,49.7797415 1.11012925,49.7797415 C4.54573234,49.7797415 14.5891454,47.6374998 16.2303616,38.2024748 C14.1661367,34.5027598 12.9844324,30.2461907 12.9844324,25.7169206 C12.9844324,11.5364689 24.5209013,0 38.7006373,0 C52.881089,-0.000715750643 64.4175579,11.5364689 64.4175579,25.7169206 L64.4175579,25.7169206 Z" id="movies" fill="#CCCCCC" sketch:type="MSShapeGroup"></path>
    </g>
</svg>