<?xml version="1.0" encoding="UTF-8" standalone="no"?>
<svg width="67px" height="53px" viewBox="0 0 67 53" version="1.1" xmlns="http://www.w3.org/2000/svg" xmlns:xlink="http://www.w3.org/1999/xlink" xmlns:sketch="http://www.bohemiancoding.com/sketch/ns">
    <!-- Generator: Sketch 3.5.2 (25235) - http://www.bohemiancoding.com/sketch -->
    <title>trailers</title>
    <desc>Created with Sketch.</desc>
    <defs></defs>
    <g id="Page-1" stroke="none" stroke-width="1" fill="none" fill-rule="evenodd" sketch:type="MSPage">
        <path d="M63.5,52.5 L53.5,52.5 L53.5,50.5 L13.5,50.5 L13.5,52.5 L3.5,52.5 C1.843,52.5 0.5,51.157 0.5,49.5 L0.5,3.5 C0.5,1.843 1.843,0.5 3.5,0.5 L13.5,0.5 L13.5,2.5 L53.5,2.5 L53.5,0.5 L63.5,0.5 C65.157,0.5 66.5,1.843 66.5,3.5 L66.5,49.5 C66.5,51.157 65.157,52.5 63.5,52.5 L63.5,52.5 Z M10.5,6.5 L10.5,3.5 L3.5,3.5 L3.5,9.5 L10.5,9.5 L10.5,6.5 L10.5,6.5 Z M10.5,13.5 L3.5,13.5 L3.5,19.5 L10.5,19.5 L10.5,13.5 L10.5,13.5 Z M10.5,23.5 L3.5,23.5 L3.5,29.5 L10.5,29.5 L10.5,23.5 L10.5,23.5 Z M10.5,33.5 L3.5,33.5 L3.5,39.5 L10.5,39.5 L10.5,33.5 L10.5,33.5 Z M10.5,46.5 L10.5,43.5 L3.5,43.5 L3.5,49.5 L10.5,49.5 L10.5,46.5 L10.5,46.5 Z M53.5,6.5 L13.5,6.5 L13.5,46.5 L53.5,46.5 L53.5,6.5 L53.5,6.5 Z M63.5,3.5 L56.5,3.5 L56.5,6.5 L56.5,9.5 L63.5,9.5 L63.5,3.5 L63.5,3.5 Z M63.5,13.5 L56.5,13.5 L56.5,19.5 L63.5,19.5 L63.5,13.5 L63.5,13.5 Z M63.5,23.5 L56.5,23.5 L56.5,29.5 L63.5,29.5 L63.5,23.5 L63.5,23.5 Z M63.5,33.5 L56.5,33.5 L56.5,39.5 L63.5,39.5 L63.5,33.5 L63.5,33.5 Z M63.5,43.5 L56.5,43.5 L56.5,46.5 L56.5,49.5 L63.5,49.5 L63.5,43.5 L63.5,43.5 Z M33.5,12.5 C41.232,12.5 47.5,18.768 47.5,26.5 C47.5,34.232 41.232,40.5 33.5,40.5 C25.768,40.5 19.5,34.232 19.5,26.5 C19.5,18.768 25.768,12.5 33.5,12.5 L33.5,12.5 Z M30.5,26.5 L30.5,32.571 L39.571,26.5 L30.5,20.429 L30.5,26.5 L30.5,26.5 Z" id="trailers" fill="#CCCCCC" sketch:type="MSShapeGroup"></path>
    </g>
</svg>